<?xml version="1.0" encoding="UTF-8"?>
<svg version="1.1" xmlns="http://www.w3.org/2000/svg" width="1024" height="1024">
<path d="M0 0 C337.92 0 675.84 0 1024 0 C1024 337.92 1024 675.84 1024 1024 C686.08 1024 348.16 1024 0 1024 C0 686.08 0 348.16 0 0 Z " fill="#0B0A0B" transform="translate(0,0)"/>
<path d="M0 0 C6.00850441 0.6676116 10.5139523 1.24374472 16.09765625 2.92578125 C16.73029388 3.11346573 17.36293152 3.30115021 18.01473999 3.49452209 C19.34939905 3.89106162 20.68309374 4.29086046 22.01583862 4.69378662 C25.46692595 5.73706321 28.92486693 6.75707146 32.3828125 7.77734375 C33.38812263 8.07472443 33.38812263 8.07472443 34.41374207 8.37811279 C40.50323201 10.16961462 46.62339719 11.72935416 52.80859375 13.1484375 C55.96609265 13.99095251 58.91344607 15.07651762 61.95727539 16.25048828 C65.24912655 17.45832658 68.61418597 18.34722038 72 19.25 C82.44955469 22.09534582 92.83929427 25.13687997 103.23046875 28.1875 C105.65296725 28.89819067 108.07624135 29.60612225 110.5 30.3125 C119.18521645 32.84848011 127.83997656 35.4765899 136.49047852 38.12841797 C142.25971807 39.88782141 148.04067448 41.60182596 153.8359375 43.2734375 C154.51137604 43.4684082 155.18681458 43.66337891 155.88272095 43.86425781 C159.19600803 44.81965272 162.51047323 45.77051451 165.82666016 46.71582031 C172.16752941 48.5374424 178.45549281 50.45048957 184.703125 52.56640625 C191.00391399 54.69451985 197.33300941 56.5715977 203.75 58.3125 C221.44856413 63.19313231 239.01953741 68.49982947 256.59960938 73.78808594 C262.82902653 75.65791502 269.06852985 77.49190172 275.3125 79.3125 C276.28493652 79.59641602 277.25737305 79.88033203 278.25927734 80.17285156 C283.5566833 81.71641044 288.85749258 83.24728957 294.16340637 84.76130676 C297.01241044 85.5748658 299.86028832 86.39232851 302.70809937 87.21005249 C304.10388689 87.60963834 305.50022588 88.00730315 306.89712524 88.40298462 C308.85593839 88.95794301 310.81277983 89.51984654 312.76953125 90.08203125 C313.89979736 90.40405518 315.03006348 90.7260791 316.19458008 91.05786133 C319 92 319 92 322 94 C322.36914349 96.96351814 322.36914349 96.96351814 322.36076355 100.84622192 C322.36332682 101.55846888 322.3658901 102.27071584 322.36853105 103.00454605 C322.37349226 105.40315971 322.35693823 107.80115088 322.34057617 110.19970703 C322.3397304 111.9142658 322.34020406 113.62882566 322.34190369 115.34338379 C322.34276702 120.0085003 322.32508671 124.67338701 322.30418181 129.33844995 C322.28547121 134.20982363 322.28366902 139.08120214 322.28010559 143.9526062 C322.27076857 153.18199167 322.24613243 162.41127097 322.21605712 171.64060962 C322.18256459 182.14588253 322.16604007 192.65116042 322.15097082 203.1564734 C322.11958427 224.7710416 322.06679166 246.38551412 322 268 C313.46871162 267.01495394 313.46871162 267.01495394 309.72485352 265.89599609 C308.98447845 265.67818481 308.24410339 265.46037354 307.48129272 265.23596191 C306.70500519 265.00082886 305.92871765 264.7656958 305.12890625 264.5234375 C303.88084702 264.15406067 303.88084702 264.15406067 302.60757446 263.77722168 C299.92419537 262.98204007 297.24338195 262.17855562 294.5625 261.375 C290.87321762 260.27847156 287.182719 259.18606583 283.4921875 258.09375 C282.13358864 257.69070145 282.13358864 257.69070145 280.74754333 257.2795105 C272.24801387 254.76341685 263.71713122 252.37079669 255.16040039 250.05615234 C254.25539795 249.80816895 253.35039551 249.56018555 252.41796875 249.3046875 C251.65250732 249.09827637 250.8870459 248.89186523 250.09838867 248.67919922 C247.9309723 247.97765735 246.02430296 247.0371997 244 246 C244.00138269 247.18139887 244.00138269 247.18139887 244.00279331 248.38666439 C244.02484707 267.52255922 244.04141083 286.65845153 244.05181217 305.79435635 C244.05697546 315.0482116 244.06401878 324.30205838 244.07543945 333.5559082 C244.08538529 341.61856198 244.09185319 349.68120963 244.09408849 357.74386936 C244.09539577 362.01568521 244.0984827 366.28748351 244.10573006 370.55929375 C244.11248869 374.57535956 244.11461728 378.59140051 244.11310768 382.60747147 C244.11338408 384.08576785 244.11539013 385.56406501 244.11920547 387.04235649 C244.12414021 389.05198957 244.12239814 391.06163581 244.12025452 393.0712738 C244.12163721 394.76230303 244.12163721 394.76230303 244.12304783 396.48749447 C244 399 244 399 243 400 C235.86801483 399.55193138 229.38779469 397.88584056 222.5546875 395.8671875 C221.46777618 395.55226349 220.38086487 395.23733948 219.26101685 394.91287231 C215.79695736 393.90715565 212.33602644 392.89109891 208.875 391.875 C206.60565651 391.21549941 204.33612657 390.55664005 202.06640625 389.8984375 C189.53788852 386.25626886 177.04263767 382.51267839 164.56591797 378.69726562 C155.26629238 375.85568511 145.94503011 373.08625432 136.625 370.3125 C135.61909821 370.01286346 134.61319641 369.71322693 133.57681274 369.4045105 C118.80550129 365.00529936 104.02006809 360.65678175 89.22323608 356.34429932 C72.38811388 351.43499683 55.59148215 346.39949438 38.80151367 341.33813477 C36.81433653 340.7395928 34.82711371 340.14120246 32.83984375 339.54296875 C31.86971848 339.25081985 30.8995932 338.95867096 29.90007019 338.65766907 C22.69723564 336.49466141 15.47796815 334.39163306 8.25390625 332.30078125 C1.28777484 330.2838235 -5.62657498 328.19208993 -12.48730469 325.83691406 C-16.98292392 324.33953914 -21.55457904 323.12071114 -26.125 321.875 C-45.83137605 316.4218447 -65.57236445 310.88607749 -85 304.5 C-86.0662561 304.15376587 -86.0662561 304.15376587 -87.15405273 303.80053711 C-90.01158304 302.8358419 -91.83678015 302.16321985 -94 300 C-94.24609566 296.98962975 -94.24609566 296.98962975 -94.24050903 293.03988647 C-94.24221788 292.31538886 -94.24392673 291.59089124 -94.24568737 290.84443915 C-94.24899489 288.40449452 -94.23795802 285.96482185 -94.22705078 283.52490234 C-94.22648694 281.78078722 -94.2268027 280.03667161 -94.22793579 278.29255676 C-94.22851136 273.5469175 -94.21672412 268.80137863 -94.20278788 264.05576277 C-94.19031443 259.10030083 -94.1891127 254.14483678 -94.18673706 249.18936157 C-94.18051231 239.80063296 -94.16408806 230.41195074 -94.14403808 221.02324259 C-94.12170999 210.3365862 -94.11069344 199.64992763 -94.10064721 188.96325374 C-94.07972268 166.97547657 -94.04452742 144.9877412 -94 123 C-89.77897142 123.57964332 -85.78254747 124.22930335 -81.70507812 125.47119141 C-80.22557678 125.91768539 -80.22557678 125.91768539 -78.71618652 126.37319946 C-77.66515747 126.69605927 -76.61412842 127.01891907 -75.53125 127.3515625 C-73.86334412 127.85724258 -73.86334412 127.85724258 -72.16174316 128.37313843 C-68.60635016 129.45229666 -65.05316158 130.53852 -61.5 131.625 C-59.1733196 132.33250011 -56.84649785 133.03953553 -54.51953125 133.74609375 C-48.78950604 135.48717864 -43.06119917 137.23383691 -37.33349609 138.98254395 C-32.02515219 140.60276683 -26.71576196 142.21954726 -21.40625 143.8359375 C-20.49919312 144.11233063 -19.59213623 144.38872375 -18.65759277 144.67349243 C-17.79412231 144.93641083 -16.93065186 145.19932922 -16.04101562 145.47021484 C-15.30484009 145.69446136 -14.56866455 145.91870789 -13.81018066 146.14974976 C-9.54247925 147.44098851 -5.27072098 148.71878371 -1 150 C-0.67 100.5 -0.34 51 0 0 Z " fill="#A122AA" transform="translate(398,322)"/>
<path d="M0 0 C0.33 0 0.66 0 1 0 C1.13057325 12.07388006 1.26097354 24.14776198 1.39115143 36.22164631 C1.45160007 41.82769677 1.51210886 47.43374658 1.57275391 53.03979492 C1.63124942 58.44734231 1.68958852 63.85489137 1.74781799 69.26244164 C1.77008972 71.32815804 1.79241833 73.39387383 1.81480408 75.459589 C1.84608654 78.34716257 1.87716891 81.23473821 1.90820312 84.12231445 C1.91755386 84.98114731 1.9269046 85.83998016 1.9365387 86.72483826 C2.02308901 94.81643798 2 102.90798796 2 111 C6.95 111.33 11.9 111.66 17 112 C17.33 112.99 17.66 113.98 18 115 C18.99 115 19.98 115 21 115 C21.66 115.66 22.32 116.32 23 117 C24.32 117 25.64 117 27 117 C27.66 117.66 28.32 118.32 29 119 C31.12843582 119.67818743 31.12843582 119.67818743 33.5 120.125 C34.2940625 120.29257812 35.088125 120.46015625 35.90625 120.6328125 C37.97403874 121.05757897 37.97403874 121.05757897 40 121 C40.33 121.66 40.66 122.32 41 123 C42.90591107 123.74949865 42.90591107 123.74949865 45.2265625 124.2890625 C46.09410156 124.50820313 46.96164062 124.72734375 47.85546875 124.953125 C48.76941406 125.17484375 49.68335938 125.3965625 50.625 125.625 C51.51574219 125.85445313 52.40648437 126.08390625 53.32421875 126.3203125 C58.35417813 127.56483853 62.82062034 128.26961154 68 128 C68 128.99 68 129.98 68 131 C69.98 131 71.96 131 74 131 C74 131.66 74 132.32 74 133 C74.66 133 75.32 133 76 133 C76.33 132.34 76.66 131.68 77 131 C78.32 131.66 79.64 132.32 81 133 C81 133.66 81 134.32 81 135 C82.5778125 135.185625 82.5778125 135.185625 84.1875 135.375 C87.45958771 135.91140782 90.00536076 136.63880035 93 138 C93.33 137.34 93.66 136.68 94 136 C94.33 136.99 94.66 137.98 95 139 C96.11375 138.95875 97.2275 138.9175 98.375 138.875 C102 139 102 139 104 141 C110.25654835 143.06969278 116.40912571 144.44937779 123 144 C123 145.32 123 146.64 123 148 C123.825 147.773125 124.65 147.54625 125.5 147.3125 C129.42676411 146.96189606 131.36923691 147.68077181 134.9140625 149.16796875 C138.85608652 150.74034912 143.01459513 151.60720407 147.171875 152.4296875 C147.77515625 152.61789062 148.3784375 152.80609375 149 153 C149.33 153.66 149.66 154.32 150 155 C150.9075 154.95875 151.815 154.9175 152.75 154.875 C156.58579684 155.02253065 158.50065304 156.08795484 161.6953125 158.03125 C164.73239824 159.30785553 167.46900789 159.42814047 170.75 159.625 C171.92046875 159.69976563 173.0909375 159.77453125 174.296875 159.8515625 C175.63492188 159.92503906 175.63492188 159.92503906 177 160 C177.33 160.99 177.66 161.98 178 163 C179.65 162.34 181.3 161.68 183 161 C183.66 162.32 184.32 163.64 185 165 C186.65 165 188.3 165 190 165 C190 165.66 190 166.32 190 167 C192.64 167 195.28 167 198 167 C198 167.99 198 168.98 198 170 C199.98 169.67 201.96 169.34 204 169 C204.33 169.66 204.66 170.32 205 171 C206.98 171 208.96 171 211 171 C211.33 171.66 211.66 172.32 212 173 C219.16513503 175.03190396 226.59349429 176.25934943 234 177 C234 177.66 234 178.32 234 179 C236.91634129 179.2502157 236.91634129 179.2502157 240 179 C240.66 178.01 241.32 177.02 242 176 C243.32 176.33 244.64 176.66 246 177 C246 177.66 246 178.32 246 179 C245.34 179 244.68 179 244 179 C244 179.66 244 180.32 244 181 C245.093125 181.309375 246.18625 181.61875 247.3125 181.9375 C249.55407994 182.58337897 251.7869351 183.2623117 254 184 C254.99 183.67 255.98 183.34 257 183 C257.66 183.33 258.32 183.66 259 184 C259 184.99 259 185.98 259 187 C259.99 187 260.98 187 262 187 C262 186.01 262 185.02 262 184 C262.99 184 263.98 184 265 184 C265.33 185.98 265.66 187.96 266 190 C257.97014409 189.46467627 250.24193402 187.62096701 243 184 C243.00138269 185.18139887 243.00138269 185.18139887 243.00279331 186.38666439 C243.02484707 205.52255922 243.04141083 224.65845153 243.05181217 243.79435635 C243.05697546 253.0482116 243.06401878 262.30205838 243.07543945 271.5559082 C243.08538529 279.61856198 243.09185319 287.68120963 243.09408849 295.74386936 C243.09539577 300.01568521 243.0984827 304.28748351 243.10573006 308.55929375 C243.11248869 312.57535956 243.11461728 316.59140051 243.11310768 320.60747147 C243.11338408 322.08576785 243.11539013 323.56406501 243.11920547 325.04235649 C243.12414021 327.05198957 243.12239814 329.06163581 243.12025452 331.0712738 C243.12163721 332.76230303 243.12163721 332.76230303 243.12304783 334.48749447 C243 337 243 337 242 338 C234.86801483 337.55193138 228.38779469 335.88584056 221.5546875 333.8671875 C220.46777618 333.55226349 219.38086487 333.23733948 218.26101685 332.91287231 C214.79695736 331.90715565 211.33602644 330.89109891 207.875 329.875 C205.60565651 329.21549941 203.33612657 328.55664005 201.06640625 327.8984375 C188.53788852 324.25626886 176.04263767 320.51267839 163.56591797 316.69726562 C154.26629238 313.85568511 144.94503011 311.08625432 135.625 308.3125 C134.61909821 308.01286346 133.61319641 307.71322693 132.57681274 307.4045105 C117.80550129 303.00529936 103.02006809 298.65678175 88.22323608 294.34429932 C71.38811388 289.43499683 54.59148215 284.39949438 37.80151367 279.33813477 C35.81433653 278.7395928 33.82711371 278.14120246 31.83984375 277.54296875 C30.86971848 277.25081985 29.8995932 276.95867096 28.90007019 276.65766907 C21.69723564 274.49466141 14.47796815 272.39163306 7.25390625 270.30078125 C0.28777484 268.2838235 -6.62657498 266.19208993 -13.48730469 263.83691406 C-17.98292392 262.33953914 -22.55457904 261.12071114 -27.125 259.875 C-46.83137605 254.4218447 -66.57236445 248.88607749 -86 242.5 C-86.7108374 242.26917725 -87.4216748 242.03835449 -88.15405273 241.80053711 C-91.01158304 240.8358419 -92.83678015 240.16321985 -95 238 C-95.24609566 234.98962975 -95.24609566 234.98962975 -95.24050903 231.03988647 C-95.24221788 230.31538886 -95.24392673 229.59089124 -95.24568737 228.84443915 C-95.24899489 226.40449452 -95.23795802 223.96482185 -95.22705078 221.52490234 C-95.22648694 219.78078722 -95.2268027 218.03667161 -95.22793579 216.29255676 C-95.22851136 211.5469175 -95.21672412 206.80137863 -95.20278788 202.05576277 C-95.19031443 197.10030083 -95.1891127 192.14483678 -95.18673706 187.18936157 C-95.18051231 177.80063296 -95.16408806 168.41195074 -95.14403808 159.02324259 C-95.12170999 148.3365862 -95.11069344 137.64992763 -95.10064721 126.96325374 C-95.07972268 104.97547657 -95.04452742 82.9877412 -95 61 C-90.77897142 61.57964332 -86.78254747 62.22930335 -82.70507812 63.47119141 C-81.22557678 63.91768539 -81.22557678 63.91768539 -79.71618652 64.37319946 C-78.66515747 64.69605927 -77.61412842 65.01891907 -76.53125 65.3515625 C-74.86334412 65.85724258 -74.86334412 65.85724258 -73.16174316 66.37313843 C-69.60635016 67.45229666 -66.05316158 68.53852 -62.5 69.625 C-60.1733196 70.33250011 -57.84649785 71.03953553 -55.51953125 71.74609375 C-49.78950604 73.48717864 -44.06119917 75.23383691 -38.33349609 76.98254395 C-33.02515219 78.60276683 -27.71576196 80.21954726 -22.40625 81.8359375 C-21.04566467 82.25052719 -21.04566467 82.25052719 -19.65759277 82.67349243 C-13.77628232 84.46429453 -7.88994616 86.23781162 -2 88 C-0.92460787 58.67544604 -0.4796305 29.33923404 0 0 Z " fill="#B82271" transform="translate(399,384)"/>
<path d="M0 0 C0.33 0 0.66 0 1 0 C1.13057325 12.07388006 1.26097354 24.14776198 1.39115143 36.22164631 C1.45160007 41.82769677 1.51210886 47.43374658 1.57275391 53.03979492 C1.63124942 58.44734231 1.68958852 63.85489137 1.74781799 69.26244164 C1.77008972 71.32815804 1.79241833 73.39387383 1.81480408 75.459589 C1.84608654 78.34716257 1.87716891 81.23473821 1.90820312 84.12231445 C1.91755386 84.98114731 1.9269046 85.83998016 1.9365387 86.72483826 C2.02308901 94.81643798 2 102.90798796 2 111 C6.95 111.33 11.9 111.66 17 112 C17.33 112.99 17.66 113.98 18 115 C18.99 115 19.98 115 21 115 C21.66 115.66 22.32 116.32 23 117 C24.32 117 25.64 117 27 117 C27.66 117.66 28.32 118.32 29 119 C31.12843582 119.67818743 31.12843582 119.67818743 33.5 120.125 C34.2940625 120.29257812 35.088125 120.46015625 35.90625 120.6328125 C37.97403874 121.05757897 37.97403874 121.05757897 40 121 C40.33 121.66 40.66 122.32 41 123 C42.90591107 123.74949865 42.90591107 123.74949865 45.2265625 124.2890625 C46.09410156 124.50820313 46.96164062 124.72734375 47.85546875 124.953125 C48.76941406 125.17484375 49.68335938 125.3965625 50.625 125.625 C51.51574219 125.85445313 52.40648437 126.08390625 53.32421875 126.3203125 C58.35417813 127.56483853 62.82062034 128.26961154 68 128 C68 128.99 68 129.98 68 131 C69.98 131 71.96 131 74 131 C74 131.66 74 132.32 74 133 C74.66 133 75.32 133 76 133 C76.33 132.34 76.66 131.68 77 131 C78.98 131.99 78.98 131.99 81 133 C81 133.66 81 134.32 81 135 C82.051875 135.12375 83.10375 135.2475 84.1875 135.375 C87.45958771 135.91140782 90.00536076 136.63880035 93 138 C93.33 137.34 93.66 136.68 94 136 C94.33 136.99 94.66 137.98 95 139 C96.11375 138.95875 97.2275 138.9175 98.375 138.875 C102 139 102 139 104 141 C110.25654835 143.06969278 116.40912571 144.44937779 123 144 C123 145.32 123 146.64 123 148 C123.825 147.773125 124.65 147.54625 125.5 147.3125 C129.42676411 146.96189606 131.36923691 147.68077181 134.9140625 149.16796875 C138.85608652 150.74034912 143.01459513 151.60720407 147.171875 152.4296875 C147.77515625 152.61789062 148.3784375 152.80609375 149 153 C149.33 153.66 149.66 154.32 150 155 C150.9075 154.95875 151.815 154.9175 152.75 154.875 C156.58579684 155.02253065 158.50065304 156.08795484 161.6953125 158.03125 C164.73239824 159.30785553 167.46900789 159.42814047 170.75 159.625 C171.92046875 159.69976563 173.0909375 159.77453125 174.296875 159.8515625 C175.63492188 159.92503906 175.63492188 159.92503906 177 160 C177.33 160.99 177.66 161.98 178 163 C180.475 162.01 180.475 162.01 183 161 C183.66 162.32 184.32 163.64 185 165 C186.65 165 188.3 165 190 165 C190 165.66 190 166.32 190 167 C192.64 167 195.28 167 198 167 C198 167.99 198 168.98 198 170 C199.98 169.67 201.96 169.34 204 169 C204.33 169.66 204.66 170.32 205 171 C206.98 171 208.96 171 211 171 C211.33 171.66 211.66 172.32 212 173 C219.16513503 175.03190396 226.59349429 176.25934943 234 177 C234 177.66 234 178.32 234 179 C236.91634129 179.2502157 236.91634129 179.2502157 240 179 C240.66 178.01 241.32 177.02 242 176 C243.32 176.33 244.64 176.66 246 177 C246 177.66 246 178.32 246 179 C245.34 179 244.68 179 244 179 C244 179.66 244 180.32 244 181 C245.093125 181.309375 246.18625 181.61875 247.3125 181.9375 C249.55407994 182.58337897 251.7869351 183.2623117 254 184 C254.99 183.67 255.98 183.34 257 183 C257.66 183.33 258.32 183.66 259 184 C259 184.99 259 185.98 259 187 C259.99 187 260.98 187 262 187 C262 186.01 262 185.02 262 184 C262.99 184 263.98 184 265 184 C265.33 185.98 265.66 187.96 266 190 C259.24329112 189.45400332 253.31561204 188.05258776 246.875 186 C238.05413632 183.21849614 229.19955834 180.57702651 220.3125 178.015625 C217.56600591 177.22152325 214.81985312 176.42624455 212.07373047 175.63085938 C211.35076216 175.42154659 210.62779385 175.21223381 209.8829174 174.99657822 C200.79456095 172.3637597 191.7137483 169.70515219 182.6328125 167.046875 C181.75794064 166.79080978 180.88306877 166.53474457 179.98168564 166.2709198 C174.6044124 164.69700707 169.22729227 163.12257186 163.85021973 161.54797363 C160.1883719 160.47574522 156.52642403 159.40385873 152.86447334 158.33198166 C148.41221173 157.02875395 143.96001094 155.72531851 139.5078125 154.421875 C138.69209904 154.18308372 137.87638557 153.94429245 137.03595352 153.69826508 C127.89846695 151.02321289 118.76206778 148.34454775 109.62899208 145.65446854 C105.75658852 144.51436653 101.88184694 143.3828399 98.00390625 142.26171875 C87.65879594 139.27054129 77.34586447 136.19736805 67.0625 133 C58.59572647 130.37114242 50.10673241 127.86502407 41.5625 125.5 C32.39701429 122.96149291 23.25143688 120.36333943 14.125 117.6875 C12.95912354 117.34976563 11.79324707 117.01203125 10.59204102 116.6640625 C9.51237061 116.34566406 8.4327002 116.02726562 7.3203125 115.69921875 C6.36398926 115.41908936 5.40766602 115.13895996 4.42236328 114.8503418 C2 114 2 114 -1 112 C-1.36749268 110.01034546 -1.36749268 110.01034546 -1.35644531 107.52099609 C-1.35940613 106.5787619 -1.36236694 105.63652771 -1.36541748 104.66574097 C-1.35311096 103.62878082 -1.34080444 102.59182068 -1.328125 101.5234375 C-1.32661438 100.43386749 -1.32510376 99.34429749 -1.32354736 98.22171021 C-1.31408099 94.60590594 -1.2824031 90.99066599 -1.25 87.375 C-1.23804306 84.87305097 -1.2269865 82.37109748 -1.21679688 79.86914062 C-1.07985645 53.24310327 -0.57775824 26.61960707 0 0 Z " fill="#C92992" transform="translate(399,384)"/>
<path d="M0 0 C0.33 0 0.66 0 1 0 C1.01030746 1.03996124 1.02061493 2.07992249 1.03123474 3.15139771 C1.16362168 16.47596309 1.29953883 29.80049121 1.4375 43.125 C1.44852123 44.19118687 1.45954247 45.25737373 1.47089767 46.35586929 C1.78417067 76.58887358 2.14824991 106.81956085 2.69506836 137.04931641 C2.92114621 149.70148537 3.06023558 162.34574751 3 175 C8.68320486 176.65144471 14.04236114 178 20 178 C21.010625 178.185625 22.02125 178.37125 23.0625 178.5625 C24.031875 178.706875 25.00125 178.85125 26 179 C26.33 178.67 26.66 178.34 27 178 C29.67058851 177.85884839 32.32432238 177.95752893 35 178 C35.33 178.99 35.66 179.98 36 181 C36.99 181 37.98 181 39 181 C39 182.65 39 184.3 39 186 C40.11375 186 41.2275 186 42.375 186 C48 186 48 186 51 187 C50.67 187.66 50.34 188.32 50 189 C50.99 189 51.98 189 53 189 C53 189.99 53 190.98 53 192 C61.3969326 193.37292913 69.48627215 194.31274919 78 194 C78 194.99 78 195.98 78 197 C78.66 197 79.32 197 80 197 C80 196.01 80 195.02 80 194 C80.99 193.67 81.98 193.34 83 193 C85 195 85 195 85.5 197.5625 C85.665 198.366875 85.83 199.17125 86 200 C86.66 200.33 87.32 200.66 88 201 C88 199.68 88 198.36 88 197 C88.99 197 89.98 197 91 197 C91.33 198.32 91.66 199.64 92 201 C94.97 201.66 97.94 202.32 101 203 C101 203.66 101 204.32 101 205 C101.66 205 102.32 205 103 205 C103 204.34 103 203.68 103 203 C103.66 203 104.32 203 105 203 C105 203.66 105 204.32 105 205 C105.99 205 106.98 205 108 205 C108.33 205.66 108.66 206.32 109 207 C112.02934491 207.65772428 112.02934491 207.65772428 115 208 C115 208.66 115 209.32 115 210 C116.65 210 118.3 210 120 210 C119.67 210.66 119.34 211.32 119 212 C113.03309831 211.20441311 107.34027447 209.51230089 101.5625 207.875 C100.44198242 207.55934082 99.32146484 207.24368164 98.16699219 206.91845703 C90.441185 204.72806095 82.75657447 202.42412974 75.08544922 200.05053711 C68.13916602 197.91772323 61.16768562 195.88401248 54.18359375 193.87890625 C52.71803543 193.45780579 52.71803543 193.45780579 51.22286987 193.02819824 C46.28847634 191.61144732 41.35269003 190.19978772 36.41503906 188.79443359 C27.47782371 186.24058554 18.57123196 183.61924167 9.73828125 180.72265625 C8.98193893 180.47809189 8.22559662 180.23352753 7.44633484 179.98155212 C2.24092791 178.24092791 2.24092791 178.24092791 0 176 C-0.24609566 173.00524712 -0.24609566 173.00524712 -0.24050903 169.07785034 C-0.24221788 168.35743628 -0.24392673 167.63702221 -0.24568737 166.89477742 C-0.24899481 164.46865176 -0.23795814 162.04279961 -0.22705078 159.61669922 C-0.22648694 157.88243618 -0.2268027 156.14817267 -0.22793579 154.41390991 C-0.22851135 149.69512906 -0.21672421 144.97644918 -0.20278788 140.25769186 C-0.19031433 135.33025717 -0.18911269 130.40282036 -0.18673706 125.47537231 C-0.18051234 116.13976753 -0.16408813 106.8042094 -0.14403808 97.46862519 C-0.1217099 86.84242718 -0.11069342 76.21622698 -0.10064721 65.59001136 C-0.07972274 43.72664817 -0.04452754 21.86332702 0 0 Z " fill="#E22B82" transform="translate(304,446)"/>
<path d="M0 0 C0.72195557 0.18457764 1.44391113 0.36915527 2.18774414 0.55932617 C6.77541467 1.7610141 11.26311637 3.14577401 15.75 4.6875 C22.29346653 6.93488955 28.89387127 8.84638531 35.5625 10.6875 C53.25901713 15.5761595 70.83180079 20.87475829 88.41210938 26.16308594 C100.91625404 29.91634451 113.45839535 33.54221244 126.00169373 37.16209412 C128.85990333 37.98714535 131.717721 38.81354999 134.57553101 39.63998413 C136.66101314 40.2423496 138.74712213 40.84250912 140.83325195 41.44262695 C142.11542811 41.81320666 143.39757475 42.1838885 144.6796875 42.5546875 C145.81519043 42.88194824 146.95069336 43.20920898 148.12060547 43.54638672 C150.8125 44.375 150.8125 44.375 152.8125 45.375 C152.8125 53.625 152.8125 61.875 152.8125 70.375 C152.4825 70.375 152.1525 70.375 151.8125 70.375 C150.47992597 55.77818907 150.47992597 55.77818907 151.8125 48.375 C151.1525 48.375 150.4925 48.375 149.8125 48.375 C149.8125 47.715 149.8125 47.055 149.8125 46.375 C148.513125 46.6534375 148.513125 46.6534375 147.1875 46.9375 C143.7233449 47.38655714 141.2189578 47.02730043 137.8125 46.375 C136.925625 46.375 136.03875 46.375 135.125 46.375 C132.8125 46.375 132.8125 46.375 129.8125 45.375 C129.8125 44.715 129.8125 44.055 129.8125 43.375 C130.4725 43.375 131.1325 43.375 131.8125 43.375 C131.8125 42.715 131.8125 42.055 131.8125 41.375 C126.8625 41.87 126.8625 41.87 121.8125 42.375 C121.4825 41.385 121.1525 40.395 120.8125 39.375 C119.719375 39.4575 118.62625 39.54 117.5 39.625 C113.8125 39.375 113.8125 39.375 111.875 37.375 C111.524375 36.715 111.17375 36.055 110.8125 35.375 C109.8225 36.035 108.8325 36.695 107.8125 37.375 C106.3275 36.88 106.3275 36.88 104.8125 36.375 C104.8125 35.385 104.8125 34.395 104.8125 33.375 C99.12264378 31.47580783 93.85097428 30.96813442 87.875 30.75 C86.56305664 30.69199219 86.56305664 30.69199219 85.22460938 30.6328125 C83.08755369 30.5393893 80.95005706 30.45614602 78.8125 30.375 C78.3175 28.89 78.3175 28.89 77.8125 27.375 C77.1525 27.375 76.4925 27.375 75.8125 27.375 C75.3175 28.86 75.3175 28.86 74.8125 30.375 C74.1525 30.045 73.4925 29.715 72.8125 29.375 C73.3075 27.89 73.3075 27.89 73.8125 26.375 C70.73300484 24.32200323 69.38733032 23.98673878 65.8125 23.625 C64.94625 23.52703125 64.08 23.4290625 63.1875 23.328125 C60.54110918 23.16724647 60.54110918 23.16724647 57.8125 25.375 C57.668125 24.735625 57.52375 24.09625 57.375 23.4375 C57.00242819 21.39954854 57.00242819 21.39954854 55.8125 20.375 C55.1525 20.375 54.4925 20.375 53.8125 20.375 C53.1525 21.035 52.4925 21.695 51.8125 22.375 C51.8125 21.715 51.8125 21.055 51.8125 20.375 C51.1525 20.045 50.4925 19.715 49.8125 19.375 C50.3075 18.88 50.3075 18.88 50.8125 18.375 C44.86239346 15.74322211 39.75329376 14.95202903 33.25390625 14.68359375 C32.44824219 14.58175781 31.64257812 14.47992188 30.8125 14.375 C30.3175 13.385 30.3175 13.385 29.8125 12.375 C29.4825 13.035 29.1525 13.695 28.8125 14.375 C27.1625 14.375 25.5125 14.375 23.8125 14.375 C23.3175 12.395 23.3175 12.395 22.8125 10.375 C22.235 10.58125 21.6575 10.7875 21.0625 11 C18.23731692 11.47086385 17.26699344 10.75565256 14.8125 9.375 C14.11125 9.21 13.41 9.045 12.6875 8.875 C10.8125 8.375 10.8125 8.375 8.8125 6.375 C8.255625 6.54 7.69875 6.705 7.125 6.875 C3.62212485 7.63237841 1.11859011 6.59947782 -2.1875 5.375 C-2.8475 4.385 -3.5075 3.395 -4.1875 2.375 C-4.5175 3.035 -4.8475 3.695 -5.1875 4.375 C-5.5175 3.385 -5.8475 2.395 -6.1875 1.375 C-7.1775 0.715 -8.1675 0.055 -9.1875 -0.625 C-6.06601907 -2.18574046 -3.23080353 -0.84424715 0 0 Z M0.8125 2.375 C1.8125 4.375 1.8125 4.375 1.8125 4.375 Z " fill="#7C21C7" transform="translate(566.1875,369.625)"/>
<path d="M0 0 C0.33 0 0.66 0 1 0 C1 57.42 1 114.84 1 174 C-8.00301646 172.87462294 -8.00301646 172.87462294 -11.38061523 171.90844727 C-12.13757187 171.69474991 -12.8945285 171.48105255 -13.67442322 171.26087952 C-14.46119949 171.03170334 -15.24797577 170.80252716 -16.05859375 170.56640625 C-16.8883522 170.32840805 -17.71811066 170.09040985 -18.57301331 169.84519958 C-20.31086554 169.34474476 -22.047833 168.84120802 -23.78393555 168.3347168 C-26.45138772 167.55845852 -29.12285394 166.79730671 -31.79492188 166.03710938 C-33.4872401 165.54777652 -35.17930701 165.05757348 -36.87109375 164.56640625 C-37.67203964 164.3392543 -38.47298553 164.11210236 -39.29820251 163.87806702 C-41.21743694 163.31174525 -43.11210276 162.66334393 -45 162 C-45.33 161.34 -45.66 160.68 -46 160 C-42.87501937 159.97104024 -39.7500731 159.95321517 -36.625 159.9375 C-35.73554687 159.92912109 -34.84609375 159.92074219 -33.9296875 159.91210938 C-33.07890625 159.90888672 -32.228125 159.90566406 -31.3515625 159.90234375 C-30.56604004 159.89710693 -29.78051758 159.89187012 -28.97119141 159.88647461 C-27 160 -27 160 -25 161 C-23.32345271 160.72057545 -21.65391846 160.39171753 -20 160 C-19.87625 161.175625 -19.87625 161.175625 -19.75 162.375 C-19.28360888 165.05773531 -19.28360888 165.05773531 -17.375 166.125 C-14.30895521 167.25459545 -11.50744514 167.42955329 -8.25 167.625 C-7.07953125 167.69976563 -5.9090625 167.77453125 -4.703125 167.8515625 C-3.36507812 167.92503906 -3.36507812 167.92503906 -2 168 C-1.67 167.34 -1.34 166.68 -1 166 C-1.66 165.67 -2.32 165.34 -3 165 C-2.34 165 -1.68 165 -1 165 C-1.03552979 164.24195068 -1.07105957 163.48390137 -1.10766602 162.70288086 C-1.26971491 159.11481001 -1.41605769 155.52624052 -1.5625 151.9375 C-1.64661133 150.15182617 -1.64661133 150.15182617 -1.73242188 148.33007812 C-2.03032879 140.72352153 -1.91838269 133.2455279 -1.52734375 125.6484375 C-0.9049696 112.44535572 -0.77697909 99.25084839 -0.68359375 86.03515625 C-0.66295467 83.53453788 -0.64195679 81.03392245 -0.62062073 78.53330994 C-0.56611628 72.03496726 -0.51639933 65.53659698 -0.46777344 59.03820801 C-0.41702627 52.37375498 -0.36162154 45.70934109 -0.30664062 39.04492188 C-0.19993886 26.02998143 -0.09814971 13.01500761 0 0 Z " fill="#D131C6" transform="translate(719,416)"/>
<path d="M0 0 C1.216875 -0.020625 2.43375 -0.04125 3.6875 -0.0625 C4.71423828 -0.07990234 4.71423828 -0.07990234 5.76171875 -0.09765625 C8 0 8 0 10.4140625 0.51171875 C14.15815886 1.21868558 17.78288876 0.91661946 21.57421875 0.7421875 C22.37472656 0.82726562 23.17523438 0.91234375 24 1 C24.66 1.99 25.32 2.98 26 4 C27.32 4 28.64 4 30 4 C30.33 4.99 30.66 5.98 31 7 C32.32 6.67 33.64 6.34 35 6 C35 6.66 35 7.32 35 8 C36.155 8.144375 37.31 8.28875 38.5 8.4375 C42.66666667 8.95833333 46.83333333 9.47916667 51 10 C51.495 11.98 51.495 11.98 52 14 C53.2684375 14.185625 53.2684375 14.185625 54.5625 14.375 C58 15 58 15 61.125 16.0625 C66.44103079 17.34863648 71.55803132 17.16084637 77 17 C77.495 18.485 77.495 18.485 78 20 C78.66 20 79.32 20 80 20 C80 19.01 80 18.02 80 17 C81.65 17.33 83.3 17.66 85 18 C85 18.66 85 19.32 85 20 C83.68 20.33 82.36 20.66 81 21 C84.3 21.33 87.6 21.66 91 22 C91.495 23.98 91.495 23.98 92 26 C92.66 25.34 93.32 24.68 94 24 C96.875 23.625 96.875 23.625 100 24 C102.25 25.875 102.25 25.875 104 28 C104.99 28.99 104.99 28.99 106 30 C99.94083642 30.26007954 94.82990601 29.73932999 89.05078125 27.9375 C87.92364716 27.60291275 87.92364716 27.60291275 86.77374268 27.26156616 C84.28302869 26.51927969 81.7979165 25.75981795 79.3125 25 C77.54779127 24.46971106 75.7827261 23.94060705 74.01733398 23.41259766 C71.16380875 22.55833571 68.31081464 21.7024712 65.45924377 20.84170532 C57.43859946 18.4209744 49.40134165 16.05974472 41.359375 13.7109375 C37.64959011 12.62431094 33.94002712 11.53693061 30.2305603 10.44921875 C27.78495062 9.73300376 25.33884339 9.01848551 22.89224243 8.30566406 C19.44844723 7.30110067 16.00718331 6.28828257 12.56640625 5.2734375 C11.00518036 4.82102188 11.00518036 4.82102188 9.41241455 4.35946655 C7.98732574 3.9366893 7.98732574 3.9366893 6.53344727 3.50537109 C5.70224869 3.26176849 4.87105011 3.01816589 4.0146637 2.7671814 C2 2 2 2 0 0 Z " fill="#D03168" transform="translate(467,671)"/>
<path d="M0 0 C6.87044234 0.69383309 13.30368656 2.70052277 19.91015625 4.6484375 C21.84643835 5.21295409 23.78272045 5.77747066 25.71900272 6.34198666 C28.4644379 7.14377246 31.20854551 7.95005668 33.95275116 8.75603867 C37.48325585 9.79182352 41.01535236 10.8221486 44.54736328 11.8527832 C49.46321828 13.28763421 54.37865802 14.72388855 59.29347992 16.16227436 C68.88451045 18.96905301 78.482001 21.7531118 88.08309937 24.52523804 C90.34459078 25.17871303 92.60561104 25.83379104 94.86645508 26.48950195 C101.42489381 28.3913414 107.98572777 30.28322009 114.5546875 32.1484375 C115.6988916 32.47561768 116.8430957 32.80279785 118.02197266 33.13989258 C120.09042061 33.73107884 122.160294 34.31731375 124.23193359 34.8972168 C125.10930176 35.14898682 125.98666992 35.40075684 126.890625 35.66015625 C127.64375977 35.87293213 128.39689453 36.08570801 129.17285156 36.30493164 C131 37 131 37 133 39 C132.34 39 131.68 39 131 39 C130.67 39.99 130.34 40.98 130 42 C129.34 41.67 128.68 41.34 128 41 C128 40.34 128 39.68 128 39 C126.35 39 124.7 39 123 39 C123 38.01 123 37.02 123 36 C122.34 36 121.68 36 121 36 C120.505 36.99 120.505 36.99 120 38 C118.37276701 37.54965877 116.74826336 37.08944646 115.125 36.625 C113.76761719 36.24214844 113.76761719 36.24214844 112.3828125 35.8515625 C110 35 110 35 108 33 C105.94623994 32.38634292 105.94623994 32.38634292 103.5625 32 C102.675625 31.83757813 101.78875 31.67515625 100.875 31.5078125 C99.92625 31.34023438 98.9775 31.17265625 98 31 C97.01 30.81179688 96.02 30.62359375 95 30.4296875 C89.53638668 29.36398861 89.53638668 29.36398861 84 29 C83.38125 28.525625 82.7625 28.05125 82.125 27.5625 C78.55903409 24.94046624 75.35077115 25 71 25 C70.505 24.01 70.505 24.01 70 23 C68.35 23 66.7 23 65 23 C65 22.34 65 21.68 65 21 C60.05 20.01 60.05 20.01 55 19 C54.505 17.515 54.505 17.515 54 16 C53.443125 16.20625 52.88625 16.4125 52.3125 16.625 C50 17 50 17 47.8125 16.0625 C44.3625084 14.75916984 41.62806898 14.97184735 37.98828125 15.22265625 C37.33214844 15.14917969 36.67601562 15.07570313 36 15 C35.34 14.01 34.68 13.02 34 12 C30.88389446 11.41407366 30.88389446 11.41407366 27.375 11.3125 C26.18648437 11.24675781 24.99796875 11.18101562 23.7734375 11.11328125 C22.85820313 11.07589844 21.94296875 11.03851562 21 11 C20.67 10.01 20.34 9.02 20 8 C18.20373433 7.29167638 18.20373433 7.29167638 16 7 C15.17242188 6.84660156 14.34484375 6.69320312 13.4921875 6.53515625 C11.74280409 6.21922283 9.99279417 5.90673962 8.2421875 5.59765625 C6 5 6 5 4 3 C1.93125966 2.3574765 1.93125966 2.3574765 0 2 C0 1.34 0 0.68 0 0 Z " fill="#73105C" transform="translate(509,530)"/>
<path d="M0 0 C5.03418284 -0.18744511 9.08883914 0.36946698 13.90234375 1.828125 C14.53781128 2.01722443 15.17327881 2.20632385 15.82800293 2.40115356 C17.8670608 3.00924287 19.90213469 3.62967707 21.9375 4.25 C24.72773072 5.08558188 27.51998128 5.91428861 30.3125 6.7421875 C30.98889023 6.94353302 31.66528046 7.14487854 32.36216736 7.35232544 C38.46770654 9.16079364 44.60395603 10.72489373 50.80859375 12.1484375 C53.96383584 12.99035032 56.90710895 14.07690345 59.94848633 15.25048828 C63.28221078 16.46845021 66.69551824 17.34579264 70.125 18.25 C80.86038912 21.1493135 91.42608307 24.56518919 102 28 C102 28.33 102 28.66 102 29 C98.87517438 29.08687496 95.75065754 29.14034568 92.625 29.1875 C91.73554688 29.21263672 90.84609375 29.23777344 89.9296875 29.26367188 C89.07890625 29.27333984 88.228125 29.28300781 87.3515625 29.29296875 C86.17327881 29.31653442 86.17327881 29.31653442 84.97119141 29.34057617 C84.32069824 29.22818604 83.67020508 29.1157959 83 29 C82.01 27.515 82.01 27.515 81 26 C80.505 27.485 80.505 27.485 80 29 C77 28 77 28 75.3125 24.9375 C74.879375 23.968125 74.44625 22.99875 74 22 C72.68 22.66 71.36 23.32 70 24 C69.01 23.01 69.01 23.01 68 22 C67.01 21.855625 66.02 21.71125 65 21.5625 C64.01 21.376875 63.02 21.19125 62 21 C61.34 20.01 60.68 19.02 60 18 C58.02 18.99 58.02 18.99 56 20 C55.34 19.01 54.68 18.02 54 17 C49.15375623 14.32962078 45.61854112 13.75638491 40.1328125 13.9609375 C37.34522174 14.01199228 34.73910191 13.48695145 32 13 C30.00034285 12.96296931 27.99943335 12.95239444 26 13 C26.66 12.67 27.32 12.34 28 12 C27.67 11.01 27.34 10.02 27 9 C26.01 9.33 25.02 9.66 24 10 C24 10.99 24 11.98 24 13 C23.01 12.67 22.02 12.34 21 12 C20.7525 11.195625 20.505 10.39125 20.25 9.5625 C19.16509381 6.58427071 19.16509381 6.58427071 15.375 5.6875 C14.26125 5.460625 13.1475 5.23375 12 5 C11.34 5.66 10.68 6.32 10 7 C9.236875 6.484375 8.47375 5.96875 7.6875 5.4375 C6.800625 4.963125 5.91375 4.48875 5 4 C1.52859548 4.76429774 1.52859548 4.76429774 0 9 C0 6.03 0 3.06 0 0 Z " fill="#7C23C8" transform="translate(400,323)"/>
<path d="M0 0 C7.72633435 2.0504064 15.36936468 4.30763673 23 6.6875 C38.80028091 11.57989247 54.66145094 16.25806396 70.53143311 20.91836548 C72.0497253 21.3642326 73.56799508 21.81017608 75.08624268 22.25619507 C78.77066632 23.33857031 82.45532761 24.42011493 86.140625 25.49951172 C94.44744325 27.93556002 102.73365596 30.42950914 111 33 C111 33.33 111 33.66 111 34 C106.80846661 34.08218693 103.09177576 33.83933862 99 33 C98.01 33.020625 97.02 33.04125 96 33.0625 C92.85431507 32.9969649 90.82438801 32.32912377 88 31 C87.34 31.99 86.68 32.98 86 34 C86 33.34 86 32.68 86 32 C82.49634528 30.83211509 81.49592818 31.09782499 78 32 C77.67 30.35 77.34 28.7 77 27 C76.443125 26.896875 75.88625 26.79375 75.3125 26.6875 C73 26 73 26 70.4375 24.375 C69.633125 23.92125 68.82875 23.4675 68 23 C66.515 23.495 66.515 23.495 65 24 C65 23.34 65 22.68 65 22 C62.69 22 60.38 22 58 22 C58 21.34 58 20.68 58 20 C49.74024281 17.48616086 40.6625962 15 32 15 C32.33 14.34 32.66 13.68 33 13 C31.10454608 12.51933465 29.20861961 12.04053257 27.3125 11.5625 C26.25675781 11.29566406 25.20101563 11.02882813 24.11328125 10.75390625 C21.4171683 10.10102068 18.7242424 9.52058807 16 9 C16 8.34 16 7.68 16 7 C15.0925 7.04125 14.185 7.0825 13.25 7.125 C10.02869994 7.00110384 8.72298199 6.54302313 6 5 C4.6757713 4.63215869 3.34386088 4.28797019 2 4 C2 3.34 2 2.68 2 2 C1.34 2 0.68 2 0 2 C0 1.34 0 0.68 0 0 Z " fill="#73105F" transform="translate(398,496)"/>
<path d="M0 0 C0.33 0 0.66 0 1 0 C1.13057325 12.07388006 1.26097354 24.14776198 1.39115143 36.22164631 C1.45160007 41.82769677 1.51210886 47.43374658 1.57275391 53.03979492 C1.63124942 58.44734231 1.68958852 63.85489137 1.74781799 69.26244164 C1.77008972 71.32815804 1.79241833 73.39387383 1.81480408 75.459589 C1.84608654 78.34716257 1.87716891 81.23473821 1.90820312 84.12231445 C1.91755386 84.98114731 1.9269046 85.83998016 1.9365387 86.72483826 C2.02308901 94.81643798 2 102.90798796 2 111 C6.95 111.33 11.9 111.66 17 112 C17.33 112.99 17.66 113.98 18 115 C18.99 115 19.98 115 21 115 C21.66 115.66 22.32 116.32 23 117 C24.32 117 25.64 117 27 117 C27.66 117.66 28.32 118.32 29 119 C31.12843582 119.67818743 31.12843582 119.67818743 33.5 120.125 C34.2940625 120.29257812 35.088125 120.46015625 35.90625 120.6328125 C37.97403874 121.05757897 37.97403874 121.05757897 40 121 C40.33 121.66 40.66 122.32 41 123 C43.02231325 123.74949964 43.02231325 123.74949964 45.47265625 124.2890625 C46.37177734 124.50820313 47.27089844 124.72734375 48.19726562 124.953125 C49.14279297 125.17484375 50.08832031 125.3965625 51.0625 125.625 C52.01189453 125.85445313 52.96128906 126.08390625 53.93945312 126.3203125 C56.29130239 126.88759272 58.64473133 127.44712003 61 128 C61 128.33 61 128.66 61 129 C54.48812285 129.43655042 48.96751476 127.83054476 42.75 126 C41.13714111 125.53557495 41.13714111 125.53557495 39.49169922 125.06176758 C37.19529183 124.39811477 34.90023975 123.72975737 32.60644531 123.05712891 C28.89424827 121.96900183 25.17784685 120.89612745 21.4609375 119.82421875 C19.01533349 119.11298077 16.57001325 118.4007662 14.125 117.6875 C12.9606543 117.35041016 11.79630859 117.01332031 10.59667969 116.66601562 C9.51547852 116.34697266 8.43427734 116.02792969 7.3203125 115.69921875 C6.36398926 115.41908936 5.40766602 115.13895996 4.42236328 114.8503418 C2 114 2 114 -1 112 C-1.36749268 110.01034546 -1.36749268 110.01034546 -1.35644531 107.52099609 C-1.35940613 106.5787619 -1.36236694 105.63652771 -1.36541748 104.66574097 C-1.35311096 103.62878082 -1.34080444 102.59182068 -1.328125 101.5234375 C-1.32661438 100.43386749 -1.32510376 99.34429749 -1.32354736 98.22171021 C-1.31408099 94.60590594 -1.2824031 90.99066599 -1.25 87.375 C-1.23804306 84.87305097 -1.2269865 82.37109748 -1.21679688 79.86914062 C-1.07985645 53.24310327 -0.57775824 26.61960707 0 0 Z " fill="#CD28A2" transform="translate(399,384)"/>
<path d="M0 0 C2.26600435 1.7628331 2.94761664 2.64361492 3.3719368 5.53043556 C3.37047024 6.54838896 3.36900368 7.56634235 3.36749268 8.61514282 C3.37306183 9.78424194 3.37863098 10.95334106 3.3843689 12.15786743 C3.37054672 14.08413467 3.37054672 14.08413467 3.35644531 16.04931641 C3.35723615 17.41445039 3.35933328 18.77958415 3.36264038 20.14471436 C3.36778081 23.85587351 3.3542226 27.56675599 3.33711338 31.27787066 C3.32207579 35.16541397 3.32325121 39.05295371 3.32244873 42.94052124 C3.31875359 49.4758577 3.30378051 56.01108931 3.28125 62.54638672 C3.25245326 70.91595605 3.24203316 79.28544059 3.2375679 87.65505409 C3.23357404 94.86531968 3.22106871 102.07556708 3.20722103 109.28581953 C3.203137 111.59477796 3.2002036 113.90373575 3.19742584 116.21269608 C3.1924983 119.85539204 3.18223759 123.49803789 3.16798782 127.14070892 C3.16137169 129.10345149 3.15947022 131.06620822 3.15774536 133.02896118 C3.12689899 139.43586766 2.85581678 145.64875626 2 152 C0.68 152.33 -0.64 152.66 -2 153 C-1.505 152.01 -1.505 152.01 -1 151 C-0.89410242 149.01110119 -0.85334196 147.01862951 -0.84178162 145.02694702 C-0.8319928 143.75366043 -0.82220398 142.48037384 -0.81211853 141.16850281 C-0.80621395 139.74954261 -0.80040353 138.33058202 -0.79467773 136.91162109 C-0.78510188 135.42365749 -0.77509198 133.93569663 -0.76467896 132.44773865 C-0.73759206 128.40048297 -0.71660303 124.35321559 -0.69667697 120.30591917 C-0.67484072 116.07913792 -0.6474405 111.85239291 -0.62062073 107.62564087 C-0.57066185 99.61817707 -0.5257349 91.6106932 -0.48259836 83.60319006 C-0.43325326 74.48842018 -0.37832504 65.37368665 -0.32291877 56.2589519 C-0.20904969 37.50600167 -0.1022214 18.75301715 0 0 Z " fill="#020703" transform="translate(642,570)"/>
<path d="M0 0 C6.59525453 0.57899813 12.6891618 1.79734737 19.0625 3.5625 C19.92810547 3.79646484 20.79371094 4.03042969 21.68554688 4.27148438 C23.79197695 4.8417334 25.89622889 5.42001834 28 6 C28 5.01 28 4.02 28 3 C28.99 3.33 29.98 3.66 31 4 C30.67 4.66 30.34 5.32 30 6 C30.99 6 31.98 6 33 6 C33 6.99 33 7.98 33 9 C41.3969326 10.37292913 49.48627215 11.31274919 58 11 C58 11.99 58 12.98 58 14 C58.66 14 59.32 14 60 14 C60 13.01 60 12.02 60 11 C60.99 10.67 61.98 10.34 63 10 C65 12 65 12 65.5 14.5625 C65.665 15.366875 65.83 16.17125 66 17 C66.66 17.33 67.32 17.66 68 18 C68 16.68 68 15.36 68 14 C68.99 14 69.98 14 71 14 C71.495 15.98 71.495 15.98 72 18 C76.455 18.99 76.455 18.99 81 20 C81 20.66 81 21.32 81 22 C81.66 22 82.32 22 83 22 C83 21.34 83 20.68 83 20 C83.66 20 84.32 20 85 20 C85 20.66 85 21.32 85 22 C85.99 22 86.98 22 88 22 C88.495 22.99 88.495 22.99 89 24 C92.02934491 24.65772428 92.02934491 24.65772428 95 25 C95 25.66 95 26.32 95 27 C96.65 27 98.3 27 100 27 C99.67 27.66 99.34 28.32 99 29 C93.03309831 28.20441311 87.34027447 26.51230089 81.5625 24.875 C80.44198242 24.55934082 79.32146484 24.24368164 78.16699219 23.91845703 C70.4545383 21.73184683 62.78362405 19.43068571 55.125 17.0637207 C36.82846086 11.45099188 18.39292657 6.2859542 0 1 C0 0.67 0 0.34 0 0 Z " fill="#D33366" transform="translate(324,629)"/>
<path d="M0 0 C0.66 0 1.32 0 2 0 C2 50.16 2 100.32 2 152 C0.35 151.34 -1.3 150.68 -3 150 C-2.01 149.67 -1.02 149.34 0 149 C0 99.83 0 50.66 0 0 Z " fill="#020601" transform="translate(396,321)"/>
<path d="M0 0 C4.57477733 0.65353962 8.31319793 1.25606087 12.62817383 2.55053711 C13.68228958 2.86433823 14.73640533 3.17813934 15.82246399 3.50144958 C17.49782478 4.0092672 17.49782478 4.0092672 19.20703125 4.52734375 C20.36877365 4.87632217 21.53051605 5.2253006 22.72746277 5.58485413 C25.17316405 6.32118711 27.61808163 7.06012758 30.06225586 7.80151367 C33.81437866 8.93806906 37.57005529 10.06227046 41.32617188 11.18554688 C43.70334906 11.90290377 46.08030999 12.62097776 48.45703125 13.33984375 C49.5840596 13.67636459 50.71108795 14.01288544 51.87226868 14.35960388 C52.91062363 14.67655716 53.94897858 14.99351044 55.01879883 15.32006836 C55.93478348 15.59684921 56.85076813 15.87363007 57.79450989 16.15879822 C60 17 60 17 62 19 C61 20 61 20 57.1875 20.1875 C53.89986528 20.16397489 51.87492341 19.65860966 49 18 C48.01 18.495 48.01 18.495 47 19 C46.01 19 45.02 19 44 19 C43.34 17.68 42.68 16.36 42 15 C41.67 15.33 41.34 15.66 41 16 C38.5625 16.25 38.5625 16.25 36 16 C35.34 15.01 34.68 14.02 34 13 C29.58660076 11.08989602 29.58660076 11.08989602 25 12 C24.01 11.34 23.02 10.68 22 10 C22.33 9.67 22.66 9.34 23 9 C20 7.66666667 20 7.66666667 17 9 C16.01 8.34 15.02 7.68 14 7 C14 6.34 14 5.68 14 5 C13.01 5.33 12.02 5.66 11 6 C10.34 5.34 9.68 4.68 9 4 C6.41645782 3.83312552 6.41645782 3.83312552 4 4 C3.23355036 8.71473552 2.89907357 13.18339619 2.97265625 17.95703125 C2.98490234 19.23384766 2.99714844 20.51066406 3.00976562 21.82617188 C3.03630008 23.83198008 3.06291655 25.83779412 3.09594727 27.84350586 C3.12603674 29.79789989 3.14329811 31.7524783 3.16015625 33.70703125 C3.17699463 34.8669458 3.19383301 36.02686035 3.21118164 37.22192383 C3 40 3 40 1 42 C0.505 21.21 0.505 21.21 0 0 Z " fill="#971D8E" transform="translate(304,445)"/>
<path d="M0 0 C5.02754105 -0.31178549 9.02451073 0.80806215 13.6875 2.5 C23.06869933 5.78422571 32.57600197 8.56640859 42.13549805 11.28320312 C43.25609619 11.60740234 44.37669434 11.93160156 45.53125 12.265625 C47.04041992 12.69536621 47.04041992 12.69536621 48.58007812 13.13378906 C51 14 51 14 53 16 C52.01 16.66 51.02 17.32 50 18 C50 17.34 50 16.68 50 16 C47.02148438 16.43945312 47.02148438 16.43945312 44.04296875 16.87890625 C42 17 42 17 39 16 C37.00038436 15.96079185 34.99950636 15.95556653 33 16 C33 14.68 33 13.36 33 12 C31.02 12.33 29.04 12.66 27 13 C27 12.34 27 11.68 27 11 C26.34 11 25.68 11 25 11 C24.67 11.66 24.34 12.32 24 13 C24 12.34 24 11.68 24 11 C23.34 11 22.68 11 22 11 C22 10.34 22 9.68 22 9 C18.62182575 8.15545644 16.32534757 7.89155081 13 9 C12.67 7.68 12.34 6.36 12 5 C10.948125 4.87625 9.89625 4.7525 8.8125 4.625 C5.54041229 4.08859218 2.99463924 3.36119965 0 2 C0 1.34 0 0.68 0 0 Z " fill="#7D22CA" transform="translate(503,352)"/>
<path d="M0 0 C0.66 0.99 1.32 1.98 2 3 C2.33 2.01 2.66 1.02 3 0 C3.99 0.33 4.98 0.66 6 1 C5.67 2.32 5.34 3.64 5 5 C6.32 5 7.64 5 9 5 C11.86453484 5.58080136 14.52402139 6.51754153 17.25 7.5625 C17.95640625 7.83191406 18.6628125 8.10132813 19.390625 8.37890625 C19.92171875 8.58386719 20.4528125 8.78882813 21 9 C21 9.99 21 10.98 21 12 C23.31 12 25.62 12 28 12 C28 12.66 28 13.32 28 14 C20.19939464 13.50869115 13.04220714 11.4640249 5.61352539 9.18920898 C3.54559072 8.55733322 1.47344038 7.94103262 -0.59960938 7.32617188 C-1.91954542 6.92799245 -3.23921729 6.52893597 -4.55859375 6.12890625 C-6.34221313 5.58858765 -6.34221313 5.58858765 -8.16186523 5.03735352 C-11 4 -11 4 -13 2 C-10.34675371 -0.65324629 -3.62132729 -0.41386598 0 0 Z " fill="#D23669" transform="translate(437,656)"/>
<path d="M0 0 C6.09849483 0.68134908 11.80279392 2.22744952 17.6875 3.9375 C19.09225586 4.33485352 19.09225586 4.33485352 20.52539062 4.74023438 C24.61961919 5.91794609 28.16420284 7.08210142 32 9 C32 16.59 32 24.18 32 32 C31.01 31.67 30.02 31.34 29 31 C28.505 21.595 28.505 21.595 28 12 C25.03 11.505 25.03 11.505 22 11 C22 10.01 22 9.02 22 8 C18.95086772 6.98888907 18.95086772 6.98888907 16 8 C15.01 7.34 14.02 6.68 13 6 C13 5.34 13 4.68 13 4 C12.34 4 11.68 4 11 4 C10.67 4.66 10.34 5.32 10 6 C9.01 6.33 8.02 6.66 7 7 C6.6596875 6.071875 6.6596875 6.071875 6.3125 5.125 C4.62070165 2.38589791 3.00755839 1.94975528 0 1 C0 0.67 0 0.34 0 0 Z " fill="#831B7E" transform="translate(366,464)"/>
<path d="M0 0 C0.33 0 0.66 0 1 0 C0.99666908 1.13965714 0.99666908 1.13965714 0.99327087 2.30233765 C0.97325451 9.45376031 0.95801898 16.60516944 0.94818783 23.75661278 C0.94296368 27.43345711 0.9358745 31.11027834 0.92456055 34.78710938 C0.91371507 38.3337896 0.90771963 41.88044757 0.90512276 45.4271431 C0.90327151 46.78196183 0.89965662 48.13677931 0.89426994 49.49158859 C0.88703762 51.38549365 0.88659176 53.27942098 0.88647461 55.17333984 C0.88314369 56.79216568 0.88314369 56.79216568 0.87974548 58.44369507 C0.82676584 60.99077346 0.82676584 60.99077346 2 63 C-4.84439404 62.43898409 -11.53412456 61.41315709 -18 59 C-18.33 58.34 -18.66 57.68 -19 57 C-17.54364629 56.77825067 -16.08477044 56.57301302 -14.625 56.375 C-13.81289063 56.25898437 -13.00078125 56.14296875 -12.1640625 56.0234375 C-11.09285156 56.01183594 -11.09285156 56.01183594 -10 56 C-9.34 56.66 -8.68 57.32 -8 58 C-5.36 58.66 -2.72 59.32 0 60 C0 40.2 0 20.4 0 0 Z " fill="#C32569" transform="translate(639,659)"/>
<path d="M0 0 C8.29444342 2.19326754 16.49450933 4.6435787 24.6875 7.1875 C25.87794922 7.55552734 27.06839844 7.92355469 28.29492188 8.30273438 C31.19712086 9.20020153 34.09879755 10.09931768 37 11 C37 11.66 37 12.32 37 13 C39.475 13.495 39.475 13.495 42 14 C41.67 14.66 41.34 15.32 41 16 C40.071875 15.835 39.14375 15.67 38.1875 15.5 C35.04378647 14.92251612 35.04378647 14.92251612 32 15 C32.33 14.34 32.66 13.68 33 13 C31.10454608 12.51933465 29.20861961 12.04053257 27.3125 11.5625 C26.25675781 11.29566406 25.20101563 11.02882813 24.11328125 10.75390625 C21.4171683 10.10102068 18.7242424 9.52058807 16 9 C16 8.34 16 7.68 16 7 C15.0925 7.04125 14.185 7.0825 13.25 7.125 C10.02869994 7.00110384 8.72298199 6.54302313 6 5 C4.6757713 4.63215869 3.34386088 4.28797019 2 4 C2 3.34 2 2.68 2 2 C1.34 2 0.68 2 0 2 C0 1.34 0 0.68 0 0 Z " fill="#7D1268" transform="translate(398,496)"/>
<path d="M0 0 C1.04542969 0.10699219 2.09085938 0.21398437 3.16796875 0.32421875 C4.72451172 0.47310547 4.72451172 0.47310547 6.3125 0.625 C9.03185885 0.97059246 11.67738489 1.4325398 14.35546875 2.01171875 C14.02546875 3.33171875 13.69546875 4.65171875 13.35546875 6.01171875 C14.01546875 6.01171875 14.67546875 6.01171875 15.35546875 6.01171875 C15.35546875 7.00171875 15.35546875 7.99171875 15.35546875 9.01171875 C8.93851492 8.40634575 2.3480277 7.47614546 -3.64453125 5.01171875 C-3.97453125 4.02171875 -4.30453125 3.03171875 -4.64453125 2.01171875 C-2.64453125 0.01171875 -2.64453125 0.01171875 0 0 Z " fill="#CD2A64" transform="translate(590.64453125,702.98828125)"/>
<path d="M0 0 C0.33 0 0.66 0 1 0 C1 20.13 1 40.26 1 61 C-2.16073705 60.20981574 -4.17866767 59.41066616 -7 58 C-8.3242287 57.63215869 -9.65613912 57.28797019 -11 57 C-11 56.01 -11 55.02 -11 54 C-7.7 54.33 -4.4 54.66 -1 55 C-0.67 54.34 -0.34 53.68 0 53 C-0.66 52.67 -1.32 52.34 -2 52 C-1.34 52 -0.68 52 0 52 C-0.03552979 51.24195068 -0.07105957 50.48390137 -0.10766602 49.70288086 C-0.85949734 33.05590447 -1.08518738 16.64200059 0 0 Z " fill="#BD1E9F" transform="translate(718,529)"/>
<path d="M0 0 C0.99 0.495 0.99 0.495 2 1 C2.0825 1.639375 2.165 2.27875 2.25 2.9375 C2.4975 3.618125 2.745 4.29875 3 5 C7.92179377 7.28083126 13.59360838 8 19 8 C21.5625 8.375 21.5625 8.375 24 9 C24.33 9.66 24.66 10.32 25 11 C18.59272304 13.1117347 14.84898091 12.96656904 8.5625 10.6875 C7.84384766 10.44837891 7.12519531 10.20925781 6.38476562 9.96289062 C1.20795759 8.20795759 1.20795759 8.20795759 0 7 C-0.04092937 4.66702567 -0.04241723 2.33294775 0 0 Z " fill="#D43065" transform="translate(305,616)"/>
<path d="M0 0 C0.99 0.33 1.98 0.66 3 1 C3 8.59 3 16.18 3 24 C2.01 23.67 1.02 23.34 0 23 C-0.19689005 19.72966072 -0.38089008 16.45872059 -0.5625 13.1875 C-0.61857422 12.25873047 -0.67464844 11.32996094 -0.73242188 10.37304688 C-0.78076172 9.48037109 -0.82910156 8.58769531 -0.87890625 7.66796875 C-0.9260376 6.84578857 -0.97316895 6.0236084 -1.02172852 5.17651367 C-1 3 -1 3 0 0 Z " fill="#6C1364" transform="translate(395,472)"/>
<path d="M0 0 C2.64 0 5.28 0 8 0 C8 0.66 8 1.32 8 2 C10.31 2.66 12.62 3.32 15 4 C15 4.66 15 5.32 15 6 C16.32 6.33 17.64 6.66 19 7 C18.01 8.32 17.02 9.64 16 11 C16 10.34 16 9.68 16 9 C12.49634528 7.83211509 11.49592818 8.09782499 8 9 C7.67 7.35 7.34 5.7 7 4 C6.401875 3.896875 5.80375 3.79375 5.1875 3.6875 C2.71756736 2.91123545 1.67748765 1.92911079 0 0 Z " fill="#7F1769" transform="translate(468,519)"/>
<path d="M0 0 C0.66 0.99 1.32 1.98 2 3 C2.33 2.01 2.66 1.02 3 0 C3.99 0.33 4.98 0.66 6 1 C5.67 2.32 5.34 3.64 5 5 C5.66 5 6.32 5 7 5 C7 5.66 7 6.32 7 7 C0.45150687 5.83795007 -5.74538144 4.26616615 -12 2 C-12 1.67 -12 1.34 -12 1 C-3.25413223 -0.37190083 -3.25413223 -0.37190083 0 0 Z " fill="#D3265C" transform="translate(437,656)"/>
<path d="M0 0 C0 0.66 0 1.32 0 2 C0.66 2 1.32 2 2 2 C2 1.01 2 0.02 2 -1 C4.475 -0.505 4.475 -0.505 7 0 C7 0.66 7 1.32 7 2 C5.68 2.33 4.36 2.66 3 3 C4.32 3.33 5.64 3.66 7 4 C7 4.66 7 5.32 7 6 C0.17576662 4.76583013 -6.39367844 3.1084005 -13 1 C-13 0.67 -13 0.34 -13 0 C-11.58456585 -0.19658808 -10.16755969 -0.38187546 -8.75 -0.5625 C-7.96109375 -0.66691406 -7.1721875 -0.77132812 -6.359375 -0.87890625 C-3.99467126 -1.00027349 -2.2488963 -0.69633257 0 0 Z " fill="#D3265F" transform="translate(545,689)"/>
<path d="M0 0 C4.95 0 9.9 0 15 0 C14.01 0.66 13.02 1.32 12 2 C17.07071901 2.71167986 21.88208358 3.10662326 27 3 C27 3.66 27 4.32 27 5 C25.68 5 24.36 5 23 5 C23 5.66 23 6.32 23 7 C15.21406284 5.38911645 7.62571782 3.23456312 0 1 C0 0.67 0 0.34 0 0 Z " fill="#0D0614" transform="translate(561,368)"/>
<path d="M0 0 C3.3 0.33 6.6 0.66 10 1 C10 0.67 10 0.34 10 0 C12.64 0.33 15.28 0.66 18 1 C17.67 1.99 17.34 2.98 17 4 C17.639375 4.12375 18.27875 4.2475 18.9375 4.375 C19.9584375 4.684375 19.9584375 4.684375 21 5 C21.33 5.66 21.66 6.32 22 7 C19.45757096 6.37798054 16.91608125 5.75248241 14.375 5.125 C13.30572266 4.86396484 13.30572266 4.86396484 12.21484375 4.59765625 C8.07203784 3.57145662 4.03273322 2.41209271 0 1 C0 0.67 0 0.34 0 0 Z " fill="#140614" transform="translate(371,464)"/>
<path d="M0 0 C0 0.66 0 1.32 0 2 C-2 4 -2 4 -4.0234375 4.01171875 C-4.79945313 3.90472656 -5.57546875 3.79773438 -6.375 3.6875 C-7.14585937 3.58824219 -7.91671875 3.48898437 -8.7109375 3.38671875 C-10.84533338 3.02612969 -12.90958571 2.55839834 -15 2 C-15 1.34 -15 0.68 -15 0 C-10.19651495 -1.60116168 -4.8351138 -1.6117046 0 0 Z " fill="#100719" transform="translate(418,321)"/>
<path d="M0 0 C0.66 0.66 1.32 1.32 2 2 C5.31558143 4.24025773 8.03433801 5.43347686 12 6 C12 6.33 12 6.66 12 7 C5.15560596 6.43898409 -1.53412456 5.41315709 -8 3 C-8.33 2.34 -8.66 1.68 -9 1 C-5.75778445 -0.08073852 -3.39597063 -0.21676408 0 0 Z " fill="#D63475" transform="translate(629,715)"/>
<path d="M0 0 C0 0.66 0 1.32 0 2 C1.98 2 3.96 2 6 2 C6 2.99 6 3.98 6 5 C-0.04801071 4.45018084 -5.30601106 3.09570426 -11 1 C-6.8204355 -1.78637633 -4.85331323 -0.79562512 0 0 Z " fill="#D62F6D" transform="translate(600,707)"/>
<path d="M0 0 C1.21236328 0.01353516 1.21236328 0.01353516 2.44921875 0.02734375 C3.37154297 0.04474609 3.37154297 0.04474609 4.3125 0.0625 C4.456875 0.68125 4.60125 1.3 4.75 1.9375 C5.24402225 4.09508322 5.24402225 4.09508322 6.3125 6.0625 C1.34333364 5.54844831 -2.97776351 4.82865118 -7.6875 3.0625 C-7.6875 2.4025 -7.6875 1.7425 -7.6875 1.0625 C-4.80538698 0.10179566 -2.98899956 -0.04331883 0 0 Z " fill="#0F0817" transform="translate(524.6875,352.9375)"/>
<path d="M0 0 C0.33 1.32 0.66 2.64 1 4 C1.845625 4.12375 2.69125 4.2475 3.5625 4.375 C7.15236798 5.02770327 10.50824875 5.95247463 14 7 C10.02175144 8.49184321 6.05009882 7.97068484 2 7 C-0.25 5.5 -0.25 5.5 -2 4 C-4.14733927 3.29485154 -4.14733927 3.29485154 -6 3 C-6 2.01 -6 1.02 -6 0 C-3.50907189 -1.24546405 -2.58919267 -0.7767578 0 0 Z " fill="#D32660" transform="translate(518,681)"/>
<path d="M0 0 C6.27 0 12.54 0 19 0 C17.68 0.33 16.36 0.66 15 1 C15 1.66 15 2.32 15 3 C16.32 3 17.64 3 19 3 C19 3.66 19 4.32 19 5 C18.21496094 4.79503906 17.42992187 4.59007812 16.62109375 4.37890625 C11.08982255 2.96045756 5.67629598 1.64503363 0 1 C0 0.67 0 0.34 0 0 Z " fill="#CC219E" transform="translate(673,576)"/>
<path d="M0 0 C4.91220685 -0.14034877 9.26969248 0.77362398 14 2 C11.50840482 4.49159518 10.50698662 4.77128348 7 5 C4.24155286 4.20163682 1.62743385 3.15398459 -1 2 C-0.67 1.34 -0.34 0.68 0 0 Z " fill="#D92F70" transform="translate(608,711)"/>
<path d="M0 0 C5.65178116 0.47098176 10.68255183 2.08282481 16 4 C16 4.33 16 4.66 16 5 C13.72844502 4.91297874 11.45769257 4.80480478 9.1875 4.6875 C7.92292969 4.62949219 6.65835937 4.57148438 5.35546875 4.51171875 C2 4 2 4 0.05078125 2.45703125 C-0.29597656 1.97621094 -0.64273437 1.49539063 -1 1 C-0.67 0.67 -0.34 0.34 0 0 Z " fill="#8324D1" transform="translate(486,347)"/>
<path d="M0 0 C2.31 0 4.62 0 7 0 C7 8.25 7 16.5 7 25 C6.67 25 6.34 25 6 25 C4.66742597 10.40318907 4.66742597 10.40318907 6 3 C5.34 3 4.68 3 4 3 C4 2.34 4 1.68 4 1 C2.68 0.67 1.36 0.34 0 0 Z " fill="#801AC8" transform="translate(712,415)"/>
<path d="M0 0 C6.12058468 0.68006496 12.19815537 1.90210116 18 4 C18.33 4.66 18.66 5.32 19 6 C17.02 6.33 15.04 6.66 13 7 C12.67 6.01 12.34 5.02 12 4 C11.13375 3.87625 10.2675 3.7525 9.375 3.625 C6.10486147 3.01941879 3.12743101 2.11693965 0 1 C0 0.67 0 0.34 0 0 Z " fill="#8225CE" transform="translate(638,392)"/>
<path d="M0 0 C3.3 0.99 6.6 1.98 10 3 C9.01 3.495 9.01 3.495 8 4 C7.67 4.99 7.34 5.98 7 7 C6.34 6.67 5.68 6.34 5 6 C5 5.34 5 4.68 5 4 C3.35 4 1.7 4 0 4 C0 2.68 0 1.36 0 0 Z " fill="#7E1362" transform="translate(632,565)"/>
<path d="M0 0 C4.571279 0.54855348 8.67435795 1.41744803 13 3 C12.01 3.495 12.01 3.495 11 4 C10.67 4.66 10.34 5.32 10 6 C9.01 6.33 8.02 6.66 7 7 C6.6596875 6.071875 6.6596875 6.071875 6.3125 5.125 C4.62070165 2.38589791 3.00755839 1.94975528 0 1 C0 0.67 0 0.34 0 0 Z " fill="#921D8E" transform="translate(366,464)"/>
<path d="M0 0 C0.66 0 1.32 0 2 0 C2 2.31 2 4.62 2 7 C1.67 7 1.34 7 1 7 C0.67 8.98 0.34 10.96 0 13 C-0.33 13 -0.66 13 -1 13 C-1.1953125 10.94921875 -1.390625 8.8984375 -1.5859375 6.84765625 C-1.72257813 6.23792969 -1.85921875 5.62820313 -2 5 C-2.66 4.67 -3.32 4.34 -4 4 C-4 3.34 -4 2.68 -4 2 C-3.01 2 -2.02 2 -1 2 C-0.67 1.34 -0.34 0.68 0 0 Z " fill="#991C75" transform="translate(640,569)"/>
<path d="M0 0 C2.64 0 5.28 0 8 0 C8 0.66 8 1.32 8 2 C9.65 2.33 11.3 2.66 13 3 C12.67 3.66 12.34 4.32 12 5 C11.071875 4.835 10.14375 4.67 9.1875 4.5 C6.04378647 3.92251612 6.04378647 3.92251612 3 4 C3.33 3.34 3.66 2.68 4 2 C2.68 1.34 1.36 0.68 0 0 Z " fill="#80186C" transform="translate(427,507)"/>
<path d="M0 0 C3.96 0 7.92 0 12 0 C12.33 1.32 12.66 2.64 13 4 C11.39431334 3.71682074 9.79047953 3.42312209 8.1875 3.125 C7.29417969 2.96257813 6.40085937 2.80015625 5.48046875 2.6328125 C3 2 3 2 0 0 Z " fill="#D4255D" transform="translate(485,675)"/>
<path d="M0 0 C6.04801071 0.54981916 11.30601106 1.90429574 17 4 C13.58389775 4.94314127 10.54865136 5.08065117 7 5 C7 4.01 7 3.02 7 2 C4.69 1.67 2.38 1.34 0 1 C0 0.67 0 0.34 0 0 Z " fill="#8527CF" transform="translate(468,342)"/>
<path d="M0 0 C0.66 0.33 1.32 0.66 2 1 C3.37098046 1.53132375 4.74646123 2.05110659 6.125 2.5625 C7.21167969 2.96662109 7.21167969 2.96662109 8.3203125 3.37890625 C8.87460937 3.58386719 9.42890625 3.78882813 10 4 C10 4.66 10 5.32 10 6 C9.01 6.33 8.02 6.66 7 7 C6.67 6.34 6.34 5.68 6 5 C4.35 5 2.7 5 1 5 C1 4.34 1 3.68 1 3 C-0.65 2.67 -2.3 2.34 -4 2 C-2.125 0.9375 -2.125 0.9375 0 0 Z " fill="#751660" transform="translate(573,548)"/>
<path d="M0 0 C-0.33 1.32 -0.66 2.64 -1 4 C-1.66 4 -2.32 4 -3 4 C-3.66 4.66 -4.32 5.32 -5 6 C-5 5.34 -5 4.68 -5 4 C-5.66 3.67 -6.32 3.34 -7 3 C-6.67 2.67 -6.34 2.34 -6 2 C-6.99 1.34 -7.98 0.68 -9 0 C-5.52176885 -1.15941038 -3.54104422 -0.70820884 0 0 Z " fill="#781EC2" transform="translate(623,386)"/>
<path d="M0 0 C5.9129304 0.64270983 11.34244531 2.19003784 17 4 C15.2109375 5.08203125 15.2109375 5.08203125 13 6 C10.6340213 5.07989717 8.30144109 4.07136051 6 3 C4.01178687 2.60235737 2.01267638 2.24544834 0 2 C0 1.34 0 0.68 0 0 Z " fill="#6B0B55" transform="translate(598,556)"/>
<path d="M0 0 C1.32 0 2.64 0 4 0 C4 0.99 4 1.98 4 3 C4.66 3.33 5.32 3.66 6 4 C1.31034294 5.11658501 -1.53763531 4.80619523 -6 3 C-6 2.67 -6 2.34 -6 2 C-3.69 2 -1.38 2 1 2 C0.67 1.34 0.34 0.68 0 0 Z " fill="#130813" transform="translate(334,449)"/>
<path d="M0 0 C4.95 0 9.9 0 15 0 C14.01 0.66 13.02 1.32 12 2 C12 2.66 12 3.32 12 4 C6.06 2.515 6.06 2.515 0 1 C0 0.67 0 0.34 0 0 Z " fill="#130424" transform="translate(561,368)"/>
<path d="M0 0 C0.99 0.66 1.98 1.32 3 2 C3 3.32 3 4.64 3 6 C1.35 6 -0.3 6 -2 6 C-2 4.35 -2 2.7 -2 1 C-1.34 0.67 -0.68 0.34 0 0 Z " fill="#CC2C5D" transform="translate(386,639)"/>
<path d="M0 0 C2.31 0 4.62 0 7 0 C6.401875 0.7425 5.80375 1.485 5.1875 2.25 C3.41826778 4.47417764 1.69139085 6.71662235 0 9 C0 6.03 0 3.06 0 0 Z " fill="#7720C0" transform="translate(400,323)"/>
<path d="M0 0 C0 0.99 0 1.98 0 3 C-3.01031744 3.93423645 -3.86650268 4.04449911 -7 3 C-7 2.01 -7 1.02 -7 0 C-3.98968256 -0.93423645 -3.13349732 -1.04449911 0 0 Z " fill="#761571" transform="translate(395,472)"/>
<path d="M0 0 C0.66 0.33 1.32 0.66 2 1 C2 1.99 2 2.98 2 4 C3.98 4 5.96 4 8 4 C8 4.66 8 5.32 8 6 C6.39431334 5.71682074 4.79047953 5.42312209 3.1875 5.125 C2.29417969 4.96257812 1.40085937 4.80015625 0.48046875 4.6328125 C-2 4 -2 4 -5 2 C-3.35 2 -1.7 2 0 2 C0 1.34 0 0.68 0 0 Z " fill="#120421" transform="translate(536,357)"/>
<path d="M0 0 C7.42857143 -0.28571429 7.42857143 -0.28571429 11 2 C6.58937864 3.0257259 4.07369424 3.03684712 0 1 C0 0.67 0 0.34 0 0 Z " fill="#D12B9D" transform="translate(639,566)"/>
<path d="M0 0 C5.21979128 -0.1799928 9.07262981 0.02905192 14 2 C14 2.33 14 2.66 14 3 C8.80790596 3.21192221 4.873261 2.5912689 0 1 C0 0.67 0 0.34 0 0 Z " fill="#8720D3" transform="translate(603,383)"/>
<path d="M0 0 C0 0.33 0 0.66 0 1 C-4.46236469 2.80619523 -7.31034294 3.11658501 -12 2 C-12 1.67 -12 1.34 -12 1 C-7.53763531 -0.80619523 -4.68965706 -1.11658501 0 0 Z " fill="#15040A" transform="translate(564,700)"/>
<path d="M0 0 C1.65 0.33 3.3 0.66 5 1 C1.25 4 1.25 4 -1 4 C-1.33 4.66 -1.66 5.32 -2 6 C-2 5.34 -2 4.68 -2 4 C-2.66 4 -3.32 4 -4 4 C-4 3.34 -4 2.68 -4 2 C-2.68 2 -1.36 2 0 2 C0 1.34 0 0.68 0 0 Z " fill="#7723BD" transform="translate(529,359)"/>
<path d="M0 0 C1.875 0.3125 1.875 0.3125 4 1 C4.66 1.99 5.32 2.98 6 4 C3.36 3.67 0.72 3.34 -2 3 C-1.34 2.01 -0.68 1.02 0 0 Z " fill="#D1275D" transform="translate(446,661)"/>
<path d="M0 0 C0.66 0 1.32 0 2 0 C2 0.66 2 1.32 2 2 C2.99 2 3.98 2 5 2 C5.33 2.99 5.66 3.98 6 5 C0.25 4.25 0.25 4.25 -2 2 C-1.34 2 -0.68 2 0 2 C0 1.34 0 0.68 0 0 Z " fill="#D0265B" transform="translate(407,649)"/>
<path d="M0 0 C0.99 0.33 1.98 0.66 3 1 C2.67 1.66 2.34 2.32 2 3 C2.99 3 3.98 3 5 3 C5 3.66 5 4.32 5 5 C3.35 5.33 1.7 5.66 0 6 C-1 3 -1 3 0 0 Z " fill="#D2275C" transform="translate(352,632)"/>
<path d="M0 0 C6.625 0.75 6.625 0.75 10 3 C6.7 3 3.4 3 0 3 C0 2.01 0 1.02 0 0 Z " fill="#6F0D5A" transform="translate(509,530)"/>
<path d="M0 0 C0.66 0.33 1.32 0.66 2 1 C1.67 1.99 1.34 2.98 1 4 C-0.98 4 -2.96 4 -5 4 C-5 3.34 -5 2.68 -5 2 C-2.625 0.9375 -2.625 0.9375 0 0 Z " fill="#7423BC" transform="translate(705,411)"/>
<path d="M0 0 C2.97 0.495 2.97 0.495 6 1 C6 1.66 6 2.32 6 3 C4.02 3.33 2.04 3.66 0 4 C0 2.68 0 1.36 0 0 Z " fill="#D0265D" transform="translate(399,648)"/>
<path d="M0 0 C0.99 0 1.98 0 3 0 C3.33 1.65 3.66 3.3 4 5 C2.35 4.67 0.7 4.34 -1 4 C-0.67 2.68 -0.34 1.36 0 0 Z " fill="#C52396" transform="translate(661,568)"/>
<path d="M0 0 C-3.6441774 2.4294516 -5.71241272 2.16179575 -10 2 C-5.86678317 -0.75547789 -4.77928863 -1.13193678 0 0 Z " fill="#7523B9" transform="translate(662,398)"/>
<path d="M0 0 C2.875 -0.125 2.875 -0.125 6 0 C6.66 0.66 7.32 1.32 8 2 C2.25 3.125 2.25 3.125 0 2 C0 1.34 0 0.68 0 0 Z " fill="#7520BD" transform="translate(503,352)"/>
</svg>
